<svg width="24.000000" height="24.000000" viewBox="0 0 24 24" fill="none" xmlns="http://www.w3.org/2000/svg" xmlns:xlink="http://www.w3.org/1999/xlink">
	<desc>
			Created with Pixso.
	</desc>
	<defs/>
	<rect id="vuesax/linear/setting-2" width="24.000000" height="24.000000" fill="#FFFFFF" fill-opacity="0"/>
	<path id="Vector" d="M12 15C10.3431 15 9 13.6567 9 12C9 10.3433 10.3431 9 12 9C13.6569 9 15 10.3433 15 12C15 13.6567 13.6569 15 12 15Z" stroke="#292D32" stroke-opacity="1.000000" stroke-width="1.500000" stroke-linejoin="round"/>
	<path id="Vector" d="M2 11.1199C2 10.0798 2.84998 9.21997 3.90002 9.21997C5.70996 9.21997 6.44995 7.93994 5.54004 6.36987C5.02002 5.46997 5.32996 4.30005 6.23999 3.78003L7.96997 2.79004C8.76001 2.31982 9.78003 2.59985 10.25 3.38989L10.36 3.57983C11.26 5.1499 12.74 5.1499 13.65 3.57983L13.76 3.38989C14.23 2.59985 15.25 2.31982 16.04 2.79004L17.77 3.78003C18.6801 4.30005 18.99 5.46997 18.47 6.36987C17.5601 7.93994 18.3 9.21997 20.11 9.21997C21.15 9.21997 22.01 10.0698 22.01 11.1199L22.01 12.8799C22.01 13.9199 21.16 14.78 20.11 14.78C18.3 14.78 17.5601 16.0598 18.47 17.6299C18.99 18.54 18.6801 19.7 17.77 20.22L16.04 21.21C15.25 21.6799 14.23 21.3999 13.76 20.6099L13.65 20.4199C12.75 18.8499 11.27 18.8499 10.36 20.4199L10.25 20.6099C9.78003 21.3999 8.76001 21.6799 7.96997 21.21L6.23999 20.22C5.32996 19.7 5.02002 18.53 5.54004 17.6299C6.44995 16.0598 5.70996 14.78 3.90002 14.78C2.84998 14.78 2 13.9199 2 12.8799L2 11.1199Z" stroke="#292D32" stroke-opacity="1.000000" stroke-width="1.500000" stroke-linejoin="round"/>
	<g opacity="0.000000"/>
</svg>
