<svg width="20" height="19" viewBox="0 0 20 19" fill="none" xmlns="http://www.w3.org/2000/svg">
<path d="M10 19.0004L8.55 17.7004C6.86667 16.1837 5.475 14.8754 4.375 13.7754C3.275 12.6754 2.4 11.6877 1.75 10.8124C1.1 9.93706 0.646 9.13306 0.388 8.40039C0.13 7.66772 0.000666667 6.91772 0 6.15039C0 4.58372 0.525 3.27539 1.575 2.22539C2.625 1.17539 3.93333 0.650391 5.5 0.650391C6.36667 0.650391 7.19167 0.833724 7.975 1.20039C8.75833 1.56706 9.43333 2.08372 10 2.75039C10.5667 2.08372 11.2417 1.56706 12.025 1.20039C12.8083 0.833724 13.6333 0.650391 14.5 0.650391C16.0667 0.650391 17.375 1.17539 18.425 2.22539C19.475 3.27539 20 4.58372 20 6.15039C20 6.91706 19.871 7.66706 19.613 8.40039C19.355 9.13372 18.9007 9.93772 18.25 10.8124C17.5993 11.6871 16.7243 12.6747 15.625 13.7754C14.5257 14.8761 13.134 16.1844 11.45 17.7004L10 19.0004Z" fill="black"/>
</svg>
