<svg width="24.000000" height="24.000000" viewBox="0 0 24 24" fill="none" xmlns="http://www.w3.org/2000/svg" xmlns:xlink="http://www.w3.org/1999/xlink">
	<desc>
			Created with Pixso.
	</desc>
	<defs/>
	<rect id="vuesax/linear/message-programming" width="24.000000" height="24.000000" fill="#FFFFFF" fill-opacity="0"/>
	<path id="Vector" d="M8 18.97C4 18.97 2 17.97 2 12.97L2 7.96997C2 3.96997 4 1.96997 8 1.96997L16 1.96997C20 1.96997 22 3.96997 22 7.96997L22 12.97C22 16.97 20 18.97 16 18.97L15.5 18.97C15.19 18.97 14.89 19.1201 14.7 19.3701L13.2 21.3701C12.54 22.25 11.46 22.25 10.8 21.3701L9.29999 19.3701C9.14001 19.1499 8.78003 18.97 8.5 18.97L8 18.97Z" stroke="#292D32" stroke-opacity="1.000000" stroke-width="1.500000" stroke-linejoin="round"/>
	<path id="Vector" d="M8 8.69995L6 10.7L8 12.7" stroke="#292D32" stroke-opacity="1.000000" stroke-width="1.500000" stroke-linejoin="round" stroke-linecap="round"/>
	<path id="Vector" d="M16 8.69995L18 10.7L16 12.7" stroke="#292D32" stroke-opacity="1.000000" stroke-width="1.500000" stroke-linejoin="round" stroke-linecap="round"/>
	<path id="Vector" d="M13 8.37012L11 13.0303" stroke="#292D32" stroke-opacity="1.000000" stroke-width="1.500000" stroke-linejoin="round" stroke-linecap="round"/>
	<g opacity="0.000000"/>
</svg>
