<svg width="24.000000" height="24.000000" viewBox="0 0 24 24" fill="none" xmlns="http://www.w3.org/2000/svg" xmlns:xlink="http://www.w3.org/1999/xlink">
	<desc>
			Created with Pixso.
	</desc>
	<defs/>
	<rect id="vuesax/linear/teacher" width="24.000000" height="24.000000" fill="#FFFFFF" fill-opacity="0"/>
	<path id="Vector" d="M4.03003 6.46008C2.09998 7.72009 2.09998 10.54 4.03003 11.8L10.05 15.73C11.13 16.4401 12.91 16.4401 13.99 15.73L19.98 11.8C21.9 10.54 21.9 7.72998 19.98 6.47009L13.99 2.54004C12.91 1.82007 11.13 1.82007 10.05 2.53003L4.03003 6.46008Z" stroke="#292D32" stroke-opacity="1.000000" stroke-width="1.500000" stroke-linejoin="round"/>
	<path id="Vector" d="M5.63 13.08L5.62 17.7699C5.62 19.0399 6.59998 20.3999 7.80005 20.7999L10.99 21.86C11.54 22.0399 12.45 22.0399 13.01 21.86L16.2 20.7999C17.4 20.3999 18.38 19.0399 18.38 17.7699L18.38 13.13" stroke="#292D32" stroke-opacity="1.000000" stroke-width="1.500000" stroke-linejoin="round" stroke-linecap="round"/>
	<path id="Vector" d="M21.4 15L21.4 9" stroke="#292D32" stroke-opacity="1.000000" stroke-width="1.500000" stroke-linejoin="round" stroke-linecap="round"/>
	<g opacity="0.000000"/>
</svg>
