<svg width="24.000000" height="24.000000" viewBox="0 0 24 24" fill="none" xmlns="http://www.w3.org/2000/svg" xmlns:xlink="http://www.w3.org/1999/xlink">
	<desc>
			Created with Pixso.
	</desc>
	<defs/>
	<rect id="vuesax/linear/award" width="24.000000" height="24.000000" fill="#FFFFFF" fill-opacity="0"/>
	<path id="Vector" d="M4.26001 15.99C4.26001 17.8099 4.26001 17.8099 5.97998 18.97L10.71 21.7C11.42 22.11 12.58 22.11 13.29 21.7L18.02 18.97C19.74 17.8099 19.74 17.8099 19.74 15.99L19.74 11.0199C19.74 9.19995 19.74 9.19995 18.02 8.04004L13.29 5.31006C12.58 4.8999 11.42 4.8999 10.71 5.31006L5.97998 8.04004C4.26001 9.19995 4.26001 9.19995 4.26001 11.0199L4.26001 15.99Z" stroke="#292D32" stroke-opacity="1.000000" stroke-width="1.500000" stroke-linejoin="round"/>
	<path id="Vector" d="M17.5 7.62988L17.5 5C17.5 3 16.5 2 14.5 2L9.5 2C7.5 2 6.5 3 6.5 5L6.5 7.56006" stroke="#292D32" stroke-opacity="1.000000" stroke-width="1.500000" stroke-linejoin="round" stroke-linecap="round"/>
	<path id="Vector" d="M13.2 11.88C13.29 12.02 13.4901 12.1599 13.64 12.2L14.66 12.46C15.29 12.62 15.46 13.1599 15.05 13.6599L14.38 14.47C14.28 14.6 14.2 14.83 14.21 14.99L14.27 16.0399C14.31 16.6899 13.85 17.02 13.25 16.7799L12.27 16.39C12.12 16.33 11.87 16.33 11.72 16.39L10.7401 16.7799C10.14 17.02 9.68005 16.6799 9.72003 16.0399L9.78003 14.99C9.79004 14.83 9.71002 14.59 9.61005 14.47L8.94 13.6599C8.53003 13.1599 8.70001 12.62 9.33002 12.46L10.35 12.2C10.51 12.1599 10.71 12.01 10.79 11.88L11.36 10.99C11.72 10.45 12.28 10.45 12.63 10.99L13.2 11.88Z" stroke="#292D32" stroke-opacity="1.000000" stroke-width="1.500000" stroke-linejoin="round"/>
	<g opacity="0.000000"/>
</svg>
