<svg width="24.000000" height="24.000000" viewBox="0 0 24 24" fill="none" xmlns="http://www.w3.org/2000/svg" xmlns:xlink="http://www.w3.org/1999/xlink">
	<desc>
			Created with Pixso.
	</desc>
	<defs/>
	<rect id="vuesax/linear/sun" width="24.000000" height="24.000000" fill="#FFFFFF" fill-opacity="0"/>
	<path id="Vector" d="M12 18.5C8.41016 18.5 5.5 15.5898 5.5 12C5.5 8.41016 8.41016 5.5 12 5.5C15.5898 5.5 18.5 8.41016 18.5 12C18.5 15.5898 15.5898 18.5 12 18.5Z" stroke="#292D32" stroke-opacity="1.000000" stroke-width="1.500000" stroke-linejoin="round"/>
	<path id="Vector" d="M19.1399 4.85999L19.01 4.98999L19.1399 4.85999ZM4.98999 19.01L4.86011 19.14L4.98999 19.01ZM12 2L12 2.07996L12 2ZM12 21.92L12 22L12 21.92ZM2 12L2.08008 12L2 12ZM21.9199 12L22 12L21.9199 12ZM4.86011 4.85999L4.98999 4.98999L4.86011 4.85999ZM19.1399 19.14L19.01 19.01" stroke="#292D32" stroke-opacity="1.000000" stroke-width="2.000000" stroke-linejoin="round" stroke-linecap="round"/>
	<g opacity="0.000000"/>
</svg>
